<svg id="Layer_1" enable-background="new 0 0 512 512" height="512" viewBox="0 0 512 512" width="512" xmlns="http://www.w3.org/2000/svg"><g><path d="m352.67 487.705c-1.418 5.755-4.395 10.914-8.447 14.969-5.756 5.755-13.723 9.326-22.48 9.326h-104.24c-8.76 0-16.697-3.571-22.48-9.326-4.055-4.055-7.031-9.214-8.42-14.969h-21.093c-7.879 0-15.053-3.232-20.24-8.42-5.217-5.188-8.42-12.359-8.42-20.269v-69.058c0-4.14 3.346-7.513 7.484-7.513s7.512 3.373 7.512 7.513v69.058c0 3.742 1.531 7.172 4.025 9.666 2.467 2.468 5.898 4.026 9.639 4.026h20.186v-199.49h-20.186c-3.74 0-7.172 1.56-9.639 4.025-2.494 2.495-4.025 5.925-4.025 9.668v69.058c0 4.139-3.373 7.512-7.512 7.512s-7.484-3.373-7.484-7.512v-69.058c0-7.91 3.203-15.083 8.42-20.271 5.188-5.188 12.361-8.419 20.24-8.419h21.092c1.389-5.755 4.365-10.915 8.42-14.968 5.783-5.756 13.721-9.327 22.48-9.327h10.461l-8.193-30.561c-1.076-3.997 1.305-8.107 5.301-9.156 3.998-1.077 8.109 1.304 9.186 5.301l9.213 34.416h14.686l-27.781-103.672-13.693 3.685 8.76 32.743c1.076 3.998-1.305 8.108-5.301 9.157-3.996 1.077-8.107-1.305-9.156-5.301l-22.825-85.103h-48.334c-5.301 0-10.092-2.382-13.521-6.236-3.402-3.828-5.217-8.846-5.217-13.919 0-13.666 7.115-25.912 18.625-34.643 10.914-8.307 25.883-13.438 42.27-13.438 16.385 0 31.324 5.132 42.266 13.438 11.482 8.731 18.598 20.949 18.598 34.643 0 5.357-1.984 10.289-5.188 13.919-1.305 1.474-2.807 2.721-4.451 3.713l40.455 151.015h11.424v-37.817c0-4.14 3.346-7.484 7.484-7.484s7.512 3.345 7.512 7.484v37.817h14.174v-109.597h-14.174v37.817c0 4.139-3.373 7.484-7.512 7.484s-7.484-3.346-7.484-7.484v-82.807c-1.871-.538-3.629-1.36-5.273-2.438-4.025-2.665-7.229-6.917-8.617-12.133-3.545-13.183.17-26.848 9.014-38.243 8.393-10.829 21.518-19.674 37.363-23.927 14.432-3.827 30.334-3.656 44.281 2.041 12.645 5.16 23.473 15.082 26.961 28.633 1.389 5.216.738 10.489-1.391 14.798-2.324 4.621-6.32 8.165-11.48 9.554l-46.69 12.502v164.679c5.754 1.417 10.914 4.393 14.969 8.448 5.754 5.754 9.353 13.72 9.353 22.48v13.579 21.856h10.375c7.428 0 14.176 3.005 19.051 7.91 4.877 4.875 7.91 11.622 7.91 19.021v36.599 96.047c0 7.427-3.033 14.174-7.91 19.05-4.875 4.877-11.623 7.909-19.051 7.909zm-122.807-10.744c0 4.139-3.348 7.484-7.484 7.484-4.139 0-7.514-3.346-7.514-7.484v-10.347c0-4.168 3.375-7.514 7.514-7.514 4.137 0 7.484 3.346 7.484 7.514zm0-39.546c0 4.167-3.348 7.512-7.484 7.512-4.139 0-7.514-3.345-7.514-7.512v-10.348c0-4.14 3.375-7.484 7.514-7.484 4.137 0 7.484 3.345 7.484 7.484zm0-39.52c0 4.14-3.348 7.513-7.484 7.513-4.139 0-7.514-3.373-7.514-7.513v-10.347c0-4.139 3.375-7.512 7.514-7.512 4.137 0 7.484 3.373 7.484 7.512zm0-39.517c0 4.139-3.348 7.512-7.484 7.512-4.139 0-7.514-3.373-7.514-7.512v-10.348c0-4.139 3.375-7.513 7.514-7.513 4.137 0 7.484 3.374 7.484 7.513zm0-39.519c0 4.14-3.348 7.484-7.484 7.484-4.139 0-7.514-3.345-7.514-7.484v-10.347c0-4.168 3.375-7.513 7.514-7.513 4.137 0 7.484 3.345 7.484 7.513zm105.854 25.317c-4.139 0-7.512-3.346-7.512-7.484 0-4.167 3.373-7.513 7.512-7.513h20.695c4.139 0 7.512 3.346 7.512 7.513 0 4.139-3.373 7.484-7.512 7.484zm-142.85-299.704c4.168 0 7.512 3.345 7.512 7.512 0 4.14-3.344 7.484-7.512 7.484h-23.133c-4.139 0-7.484-3.345-7.484-7.484 0-4.167 3.346-7.512 7.484-7.512zm125.104 1.757c-3.998 1.076-8.107-1.305-9.185-5.302-1.049-3.998 1.305-8.079 5.301-9.156l21.943-5.869c.766-.255 1.559-.396 2.352-.396 3.316 0 6.352 2.239 7.23 5.585 1.076 3.997-1.305 8.107-5.303 9.156zm-105.174 73.225 13.719-3.657-9.637-35.89c-1.049-3.998 1.305-8.107 5.301-9.186 1.729-.453 2.891.143 4.279-1.445.881-.992 1.447-2.409 1.447-3.996 0-8.761-4.848-16.783-12.701-22.736-8.391-6.379-20.127-10.348-33.223-10.348-13.098 0-24.836 3.969-33.254 10.348-7.201 5.471-12.645 13.38-12.645 22.736 0 1.587.539 3.004 1.418 3.996.566.681 1.418 1.219 2.324 1.219h54.09c3.373 0 6.379 2.268 7.258 5.557zm87.285-10.121h14.174v-44.933c0-3.316 2.211-6.35 5.559-7.257l51.85-13.891c3.09-.822 3.146-3.885 2.578-6.436-2.352-8.277-9.043-14.685-18-18.341-9.695-3.97-21.914-4.763-34.443-1.503-12.105 3.913-21.717 8.306-29.768 18.682-6.01 7.797-8.619 16.811-6.35 25.259.397 1.56 1.305 2.778 2.41 3.515 1.785 1.192 2.635.285 4.478.285 4.139 0 7.512 3.345 7.512 7.483zm75.834 262.879h-59.703v88.534c0 3.288 1.359 6.265 3.516 8.447 2.184 2.155 5.16 3.516 8.447 3.516h35.775c3.291 0 6.266-1.36 8.449-3.516 2.154-2.183 3.516-5.159 3.516-8.447zm-59.703-15.025h59.703v-29.087c0-3.26-1.361-6.264-3.516-8.418-2.184-2.185-5.158-3.517-8.449-3.517h-35.775c-3.287 0-6.264 1.332-8.447 3.517-2.156 2.154-3.516 5.158-3.516 8.418zm22.338-56.017v-14.344h-51.934c-4.139 0-7.514-3.347-7.514-7.513 0-4.139 3.375-7.485 7.514-7.485h51.934v-6.094c0-4.622-1.871-8.817-4.932-11.878-3.063-3.033-7.258-4.934-11.877-4.934-34.729 0-69.484 0-104.24 0-4.621 0-8.816 1.9-11.85 4.934-3.063 3.061-4.961 7.256-4.961 11.878v6.094h51.963c4.139 0 7.484 3.347 7.484 7.485 0 4.166-3.346 7.513-7.484 7.513h-51.963v193.366c0 4.621 1.898 8.816 4.961 11.879 3.033 3.033 7.229 4.933 11.85 4.933h104.24c4.619 0 8.814-1.899 11.877-4.933 1.275-1.276 2.354-2.75 3.176-4.366h-8.619c-7.426 0-14.174-3.032-19.051-7.909-4.875-4.876-7.908-11.623-7.908-19.05v-96.047-36.599c0-7.398 3.033-14.146 7.908-19.021 4.877-4.905 11.625-7.91 19.051-7.91h10.375z"/></g></svg>